<?xml version="1.0" encoding="UTF-8" standalone="no"?>
<!DOCTYPE svg PUBLIC "-//W3C//DTD SVG 1.1//EN" "http://www.w3.org/Graphics/SVG/1.1/DTD/svg11.dtd">
<svg width="100%" height="100%" viewBox="0 0 1300 355" version="1.1" xmlns="http://www.w3.org/2000/svg" xmlns:xlink="http://www.w3.org/1999/xlink" xml:space="preserve" xmlns:serif="http://www.serif.com/" style="fill-rule:evenodd;clip-rule:evenodd;stroke-linejoin:round;stroke-miterlimit:2;">
    <g transform="matrix(3.51526,0,0,3.51526,-939.563,-472.396)">
        <g transform="matrix(67.4547,0,0,67.4547,390.003,207.361)">
            <path d="M0.063,-0L0.063,-0.727L0.217,-0.727L0.217,-0.407L0.227,-0.407L0.488,-0.727L0.673,-0.727L0.403,-0.402L0.676,-0L0.492,-0L0.293,-0.299L0.217,-0.207L0.217,-0L0.063,-0Z" style="fill:rgb(29,30,50);fill-rule:nonzero;"/>
        </g>
        <g transform="matrix(67.4547,0,0,67.4547,434.222,207.361)">
            <path d="M0.41,-0.232L0.41,-0.545L0.561,-0.545L0.561,-0L0.416,-0L0.416,-0.099L0.411,-0.099C0.398,-0.067 0.378,-0.041 0.349,-0.022C0.321,-0.003 0.286,0.007 0.245,0.007C0.19,0.007 0.146,-0.011 0.112,-0.048C0.078,-0.084 0.061,-0.134 0.06,-0.198L0.06,-0.545L0.212,-0.545L0.212,-0.225C0.212,-0.193 0.221,-0.167 0.238,-0.149C0.255,-0.13 0.277,-0.121 0.306,-0.121C0.333,-0.121 0.358,-0.13 0.379,-0.149C0.4,-0.168 0.41,-0.196 0.41,-0.232Z" style="fill:rgb(29,30,50);fill-rule:nonzero;"/>
        </g>
        <g transform="matrix(67.4547,0,0,67.4547,476.166,207.361)">
            <path d="M0.06,-0L0.06,-0.545L0.205,-0.545L0.205,-0.449L0.211,-0.449C0.222,-0.481 0.241,-0.507 0.268,-0.525C0.295,-0.543 0.326,-0.553 0.363,-0.553C0.4,-0.553 0.432,-0.543 0.458,-0.525C0.485,-0.506 0.502,-0.481 0.511,-0.449L0.517,-0.449C0.528,-0.48 0.548,-0.506 0.577,-0.524C0.606,-0.543 0.641,-0.553 0.681,-0.553C0.732,-0.553 0.773,-0.536 0.805,-0.504C0.837,-0.472 0.853,-0.426 0.853,-0.367L0.853,-0L0.702,-0L0.702,-0.337C0.702,-0.367 0.694,-0.39 0.678,-0.405C0.662,-0.42 0.642,-0.428 0.618,-0.428C0.59,-0.428 0.569,-0.419 0.553,-0.402C0.538,-0.384 0.53,-0.361 0.53,-0.333L0.53,-0L0.384,-0L0.384,-0.34C0.384,-0.367 0.376,-0.388 0.361,-0.404C0.345,-0.42 0.325,-0.428 0.3,-0.428C0.275,-0.428 0.254,-0.419 0.237,-0.4C0.22,-0.382 0.212,-0.358 0.212,-0.327L0.212,-0L0.06,-0Z" style="fill:rgb(29,30,50);fill-rule:nonzero;"/>
        </g>
        <g transform="matrix(67.4547,0,0,67.4547,537.68,207.361)">
            <path d="M0.06,-0L0.06,-0.545L0.212,-0.545L0.212,-0L0.06,-0ZM0.136,-0.616C0.114,-0.616 0.095,-0.623 0.079,-0.638C0.063,-0.653 0.055,-0.671 0.055,-0.692C0.055,-0.714 0.063,-0.732 0.079,-0.746C0.095,-0.761 0.114,-0.769 0.136,-0.769C0.159,-0.769 0.178,-0.761 0.194,-0.746C0.21,-0.732 0.218,-0.714 0.218,-0.692C0.218,-0.671 0.21,-0.653 0.194,-0.638C0.178,-0.623 0.159,-0.616 0.136,-0.616Z" style="fill:rgb(29,30,50);fill-rule:nonzero;"/>
        </g>
        <g transform="matrix(67.4547,0,0,67.4547,556.029,207.361)">
            <path d="M0.06,-0L0.06,-0.727L0.212,-0.727L0.212,-0.338L0.22,-0.338L0.395,-0.545L0.568,-0.545L0.366,-0.309L0.578,-0L0.401,-0L0.252,-0.22L0.212,-0.173L0.212,-0L0.06,-0Z" style="fill:rgb(29,30,50);fill-rule:nonzero;"/>
        </g>
        <g transform="matrix(67.4547,0,0,67.4547,593.733,207.361)">
            <path d="M0.307,0.011C0.252,0.011 0.204,-0.001 0.164,-0.025C0.124,-0.048 0.093,-0.081 0.071,-0.123C0.049,-0.166 0.038,-0.215 0.038,-0.271C0.038,-0.327 0.049,-0.376 0.071,-0.419C0.093,-0.461 0.124,-0.494 0.164,-0.517C0.204,-0.541 0.252,-0.553 0.307,-0.553C0.362,-0.553 0.41,-0.541 0.45,-0.517C0.49,-0.494 0.521,-0.461 0.543,-0.419C0.564,-0.376 0.575,-0.327 0.575,-0.271C0.575,-0.215 0.564,-0.166 0.543,-0.123C0.521,-0.081 0.49,-0.048 0.45,-0.025C0.41,-0.001 0.362,0.011 0.307,0.011ZM0.308,-0.107C0.345,-0.107 0.373,-0.122 0.393,-0.153C0.412,-0.185 0.422,-0.224 0.422,-0.272C0.422,-0.319 0.412,-0.359 0.393,-0.39C0.373,-0.421 0.345,-0.437 0.308,-0.437C0.269,-0.437 0.241,-0.421 0.221,-0.39C0.202,-0.359 0.192,-0.319 0.192,-0.272C0.192,-0.224 0.202,-0.185 0.221,-0.153C0.241,-0.122 0.269,-0.107 0.308,-0.107Z" style="fill:rgb(29,30,50);fill-rule:nonzero;"/>
        </g>
    </g>
    <g transform="matrix(1.25912,0,0,1.25912,-491.167,-40.9945)">
        <path d="M511.856,112.487C513.186,72.528 546.039,40.5 586.314,40.5C627.431,40.5 660.814,73.882 660.814,115C660.814,141.385 647.068,164.585 626.348,177.825C646.505,191.16 659.814,214.038 659.814,240C659.814,281.118 626.431,314.5 585.314,314.5C545.865,314.5 513.537,283.773 510.977,244.967C500.996,250.036 489.727,252.923 477.795,252.998L477.314,253C436.196,253 402.814,219.618 402.814,178.5C402.814,137.543 435.936,104.26 476.832,104.002L477.314,104L477.795,104.002C490.08,104.079 501.664,107.137 511.856,112.487ZM540.643,217.734C537.292,224.439 535.406,232.001 535.406,240C535.406,267.545 557.769,289.908 585.314,289.908C612.859,289.908 635.222,267.545 635.222,240C635.222,212.455 612.859,190.092 585.314,190.092C567.737,190.092 552.271,199.198 543.377,212.947C542.523,214.58 541.61,216.177 540.643,217.734ZM477.314,128.592C449.769,128.592 427.406,150.955 427.406,178.5C427.406,206.045 449.769,228.408 477.314,228.408L477.636,228.407C495.071,228.297 510.397,219.226 519.237,205.574L519.251,205.553C520.104,203.92 521.017,202.323 521.984,200.766C525.336,194.061 527.222,186.499 527.222,178.5C527.222,151.062 505.033,128.767 477.636,128.593L477.314,128.592ZM636.222,115C636.222,142.545 613.859,164.908 586.314,164.908C558.769,164.908 536.406,142.545 536.406,115C536.406,87.455 558.769,65.092 586.314,65.092C613.859,65.092 636.222,87.455 636.222,115Z" style="fill:rgb(238,63,134);"/>
    </g>
</svg>
