<?xml version="1.0" encoding="UTF-8" standalone="no"?>
<!DOCTYPE svg PUBLIC "-//W3C//DTD SVG 1.1//EN" "http://www.w3.org/Graphics/SVG/1.1/DTD/svg11.dtd">
<svg width="100%" height="100%" viewBox="0 0 1300 355" version="1.1" xmlns="http://www.w3.org/2000/svg" xmlns:xlink="http://www.w3.org/1999/xlink" xml:space="preserve" xmlns:serif="http://www.serif.com/" style="fill-rule:evenodd;clip-rule:evenodd;stroke-linejoin:round;stroke-miterlimit:2;">
    <g>
        <g transform="matrix(3.51526,0,0,3.51526,-939.563,-472.396)">
            <text x="390.003px" y="207.361px" style="font-family:'Inter-Bold', 'Inter';font-weight:700;font-size:67.455px;fill:rgb(29,30,50);">K<tspan x="434.222px " y="207.361px ">u</tspan>mik<tspan x="593.733px " y="207.361px ">o</tspan></text>
        </g>
        <g transform="matrix(1.25912,0,0,1.25912,-491.167,-40.9945)">
            <path d="M511.856,112.487C513.186,72.528 546.039,40.5 586.314,40.5C627.431,40.5 660.814,73.882 660.814,115C660.814,141.385 647.068,164.585 626.348,177.825C646.505,191.16 659.814,214.038 659.814,240C659.814,281.118 626.431,314.5 585.314,314.5C545.865,314.5 513.537,283.773 510.977,244.967C500.996,250.036 489.727,252.923 477.795,252.998L477.314,253C436.196,253 402.814,219.618 402.814,178.5C402.814,137.543 435.936,104.26 476.832,104.002L477.314,104L477.795,104.002C490.08,104.079 501.664,107.137 511.856,112.487ZM540.643,217.734C537.292,224.439 535.406,232.001 535.406,240C535.406,267.545 557.769,289.908 585.314,289.908C612.859,289.908 635.222,267.545 635.222,240C635.222,212.455 612.859,190.092 585.314,190.092C567.737,190.092 552.271,199.198 543.377,212.947C542.523,214.58 541.61,216.177 540.643,217.734ZM477.314,128.592C449.769,128.592 427.406,150.955 427.406,178.5C427.406,206.045 449.769,228.408 477.314,228.408L477.636,228.407C495.071,228.297 510.397,219.226 519.237,205.574L519.251,205.553C520.104,203.92 521.017,202.323 521.984,200.766C525.336,194.061 527.222,186.499 527.222,178.5C527.222,151.062 505.033,128.767 477.636,128.593L477.314,128.592ZM636.222,115C636.222,142.545 613.859,164.908 586.314,164.908C558.769,164.908 536.406,142.545 536.406,115C536.406,87.455 558.769,65.092 586.314,65.092C613.859,65.092 636.222,87.455 636.222,115Z" style="fill:rgb(238,63,134);"/>
        </g>
    </g>
</svg>
